<?xml version="1.0" encoding="UTF-8" standalone="no"?>
<!DOCTYPE svg PUBLIC "-//W3C//DTD SVG 1.1//EN" "http://www.w3.org/Graphics/SVG/1.1/DTD/svg11.dtd">
<svg width="100%" height="100%" viewBox="0 0 500 500" version="1.1" xmlns="http://www.w3.org/2000/svg" xmlns:xlink="http://www.w3.org/1999/xlink" xml:space="preserve" xmlns:serif="http://www.serif.com/" style="fill-rule:evenodd;clip-rule:evenodd;stroke-linejoin:round;stroke-miterlimit:2;">
    <g transform="matrix(0.831298,0,0,0.836044,69.826622,63.596163)">
        <path d="M430.974,335.446C436.809,402.176 386.963,443.089 334.504,443.873C333.96,443.881 18.14,443.878 16.497,443.874C-0.733,443.834 2.228,426.267 2.228,409.5C2.228,13.059 2.102,12.952 3.274,10.404C7.771,0.626 11.025,2.123 53.5,2.123C336.675,2.123 336.778,1.991 339.623,3.208C349.038,7.236 347.669,10.149 347.669,63.5C347.669,249.813 347.58,250.122 348.396,250.616C353.413,253.655 417.971,257.557 430.974,335.446ZM96.5,27.966C138.028,28.443 320.242,27.281 321.369,28.62C321.834,29.172 321.783,29.284 321.783,211.5C321.783,249.435 322.24,250.74 319.454,251.258C242.862,265.479 222.852,344.387 248.713,391.382C262.921,417.2 269.337,414.474 267.755,417.678C267.37,418.457 267.092,418.053 262.5,417.966C246.864,417.667 29.634,418.613 28.563,417.443C28.129,416.969 28.129,410.136 28.129,409.5C28.11,29.056 28.207,28.921 28.563,28.557C29.227,27.877 29.418,27.966 96.5,27.966ZM334.502,418.024C328.516,417.706 288.191,415.564 270.983,378.262C242.105,315.664 303.944,260.952 356.567,279.321C430.774,305.224 418.828,414.249 334.502,418.024Z" style="fill-opacity:1;"/>
    </g>
    <g transform="matrix(0.831298,0,0,0.836044,69.826622,63.596163)">
        <path d="M112.536,109.117C112.459,109.12 103.995,108.436 100.759,113.65C93.537,125.284 120.948,131.859 123.428,132.706C146.652,140.641 152.572,159.785 150.102,175.436C146.1,200.798 124.432,203.048 124.125,207.469C122.774,226.894 100.621,227.53 98.176,208.525C97.732,205.078 93.931,206.572 81.63,200.257C62.056,190.206 73.765,165.986 93.636,177.26C108.137,185.488 120.673,181.431 123.651,174.568C130.455,158.889 108.994,155.377 101.527,152.431C97.765,150.947 67.664,139.071 74.758,109.559C79.755,88.769 97.777,87.249 98.168,83.465C100.254,63.261 122.705,68.381 124.019,81.556C124.396,85.345 124.828,85.411 128.287,86.967C146.209,95.028 145.768,107.11 139.214,113.191C129.36,122.335 121.61,110.605 112.536,109.117Z" style="fill-opacity:1;"/>
    </g>
    <g transform="matrix(0.831298,0,0,0.836044,69.826622,63.596163)">
        <path d="M66.078,286.376C66.436,285.395 68.828,278.835 75.448,277.284C80.223,276.166 196.936,276.802 207.5,276.859C227.493,276.968 224.946,296.647 216.273,301.088C212.634,302.952 212.396,302.729 102.5,302.729C82.651,302.729 62.804,305.902 66.078,286.376Z" style="fill-opacity:0.99;"/>
    </g>
    <g transform="matrix(0.831298,0,0,0.836044,69.826622,63.596163)">
        <path d="M66.029,338.372C69.396,329.182 74.652,328.608 82.5,328.608C195.363,328.607 195.25,328.606 196.495,328.638C210.509,328.991 213.98,347.448 202.308,353.098C199.001,354.699 198.806,354.503 102.5,354.503C82.538,354.503 63.06,357.605 66.029,338.372Z" style="fill-opacity:1;"/>
    </g>
    <g transform="matrix(0.831298,0,0,0.836044,69.826622,63.596163)">
        <path d="M373.951,326.387C375.195,336.064 373.078,336.203 348.639,360.64C332.239,377.038 328.379,384.417 313.44,369.56C302.338,358.52 289.379,349.318 297.878,337.811C306.567,326.044 318.984,338.475 320.254,339.747C324.555,344.053 325.071,347.644 329.341,343.341C353.252,319.25 358.413,311.469 369.562,319.421C372.175,321.285 373.734,325.765 373.951,326.387Z" style="fill-opacity:1;"/>
    </g>
    <g transform="matrix(0.831298,0,0,0.836044,69.826622,63.596163)">
        <path d="M284.981,145.498C284.056,160.792 272.279,158.382 244.5,158.382C197.557,158.382 193.91,159.918 190.171,149.608C188.045,143.747 190.801,132.761 203.5,132.543C209.249,132.445 270.283,131.399 275.369,132.98C276.009,133.179 279.744,134.339 282.339,137.625C284.997,140.99 284.321,141.29 284.981,145.498Z" style="fill-opacity:1;"/>
    </g>
    <g transform="matrix(0.831298,0,0,0.836044,69.826622,63.596163)">
        <path d="M273.573,209.934C271.709,210.035 203.238,210.846 198.502,209.492C186.088,205.945 185.222,184.318 204.5,184.253C269.818,184.031 269.988,183.117 275.355,184.943C286.867,188.86 288.681,206.417 273.573,209.934Z" style="fill-opacity:1;"/>
    </g>
    <g transform="matrix(0.831298,0,0,0.836044,69.826622,63.596163)">
        <path d="M279.693,103.734C275.133,107.161 274.615,106.705 211.5,106.705C208.126,106.705 192.676,109.128 189.764,96.439C188.013,88.812 194.101,80.94 202.51,80.869C208.107,80.822 266.773,80.329 272.469,80.911C283.026,81.991 289.364,94.587 279.693,103.734Z" style="fill-opacity:0.99;"/>
    </g>
</svg>
